<svg enable-background="new 0 0 136 37" viewBox="0 0 136 37" xmlns="http://www.w3.org/2000/svg"><path clip-rule="evenodd" d="m52.5 8.5c-.2.5-.3 1-.4 1.4-.1-.5-.2-.9-.4-1.4l-1-2.9h-1.3l2.1 5.6h1.2l2.1-5.6h-1.3zm-6.4 8.2-5.1 15.7h2.6l1.4-4.6h5.2l1.5 4.6h2.7l-5.1-15.7zm-.6 9.2 1.3-4.1c.3-1.3.6-2.3.8-3 .4 1.6.7 2.5.8 3l1.3 4.1zm43.4-14.7c.7 0 1.4-.1 1.9-.3l-.2-.9c-.5.2-1 .3-1.5.3-1 0-1.7-.6-1.8-1.6h3.7c0-.1 0-.3 0-.6 0-1.6-.9-2.6-2.3-2.6-1.6 0-2.7 1.3-2.7 3 .1 1.6 1.1 2.7 2.9 2.7zm-.2-4.9c.8 0 1.2.6 1.2 1.5h-2.6c.1-.9.6-1.5 1.4-1.5zm-21.4-3.3h-1.3v8.1h1.2v-8.1zm46.4 6.3c0 1.4.6 1.9 1.6 1.9.4 0 .7 0 1-.1v-.9c-.1 0-.3.1-.6.1-.5 0-.7-.3-.7-1v-2.8h1.4v-1h-1.4v-1.3l-1.2.4v1h-.8v.9h.8v2.8zm-50.6-4.7c.5 0 .8-.3.8-.7s-.3-.7-.8-.7c-.4 0-.8.3-.8.7.1.4.4.7.8.7zm-.6 6.5h1.2v-5.6h-1.2zm-44.5-11.1h-16c-1.1 0-2 .9-2 2v32c0 1.1.9 2 2 2h16c1.1 0 2-.9 2-2v-32c0-1.1-.9-2-2-2zm-10 2h4v1h-4zm2 33c-1.1 0-2-.9-2-2s.9-2 2-2 2 .9 2 2-.9 2-2 2zm8-5h-16v-25h16zm25.9-21.2h2.5l.7 2.3h1.3l-2.4-7.7h-1.5l-2.5 7.7h1.3zm.9-2.9c.2-.6.3-1.1.4-1.5.2.8.3 1.2.4 1.5l.7 2h-2.1zm91.2 20.3c0-1.4-.3-2.6-1-3.6-.8-1.2-2.1-1.8-3.7-1.8-1.7 0-3 .6-4 1.8-.9 1.1-1.4 2.6-1.4 4.3s.5 3.1 1.5 4.2c1 1 2.4 1.5 4.2 1.5 1.5 0 2.8-.2 3.8-.7l-.4-1.7c-.9.4-2 .5-3.1.5-1 0-1.8-.3-2.5-.8-.7-.6-1.1-1.4-1.1-2.6h7.6c.1-.2.1-.6.1-1.1zm-7.7-.6c.1-.8.3-1.4.8-2 .5-.7 1.2-1 2-1 .9 0 1.6.3 2 1.1.3.5.5 1.2.5 1.9zm-21.4-17.7v3.2h1.2v-3.3c0-1.5-.8-2.3-2-2.3-.8 0-1.4.4-1.8 1l-.1-.9h-1.1v1.6 4h1.2v-3.4c0-.7.5-1.4 1.2-1.4 1 0 1.4.5 1.4 1.5zm22.1 3-.2-.9c-.4.2-1 .3-1.5.3-1 0-1.7-.6-1.8-1.6h3.7c0-.1 0-.3 0-.6 0-1.6-.9-2.6-2.3-2.6-1.6 0-2.7 1.3-2.7 3s1 2.8 2.8 2.8c.9-.1 1.5-.2 2-.4zm-2.1-4.6c.8 0 1.2.6 1.2 1.5h-2.6c.1-.9.7-1.5 1.4-1.5zm-25.5 2c0-1.7-1.1-2.9-2.7-2.9-1.7 0-2.8 1.2-2.8 2.9 0 1.6 1.1 2.9 2.7 2.9 1.7 0 2.8-1.2 2.8-2.9zm-4.2 0c0-1.2.6-2 1.5-2s1.5.8 1.5 2c0 1.1-.6 2-1.5 2s-1.5-.8-1.5-2zm3.8 10-2.5.7v2.1h-1.7v1.9h1.7v5.7c0 1.4.3 2.4.8 3.1.6.6 1.3.9 2.4.9.8 0 1.5-.1 2-.3l-.1-1.9c-.3.1-.7.1-1.1.1-1 0-1.5-.7-1.5-2.1v-5.5h2.8v-1.9h-2.8zm9.9 2.6c-1.7 0-3.1.6-4.2 1.7-1 1.1-1.5 2.6-1.5 4.3s.5 3.1 1.5 4.2 2.3 1.7 4 1.7 3.1-.6 4.2-1.7c1-1.1 1.5-2.5 1.5-4.3 0-1.7-.5-3.1-1.5-4.1-1-1.3-2.4-1.8-4-1.8zm2.1 8.5c-.6.9-1.3 1.4-2.3 1.4s-1.8-.4-2.3-1.3c-.5-.7-.7-1.6-.7-2.7s.2-2 .7-2.7c.5-.9 1.3-1.3 2.3-1.3s1.8.4 2.3 1.3c.5.7.7 1.6.7 2.7 0 1-.2 1.9-.7 2.6zm11-8.5c-.7 0-1.3.2-1.8.6-.6.4-1 1-1.3 1.8h-.1l-.1-2.2h-2.2c0 1.1.1 2.3.1 3.6v7.8h2.5v-5.9c0-.9.2-1.6.6-2.2.5-.7 1.2-1 2.1-1 .3 0 .5 0 .8.1v-2.4c-.2-.2-.4-.2-.6-.2zm-4.7-13.1c0-.9.6-1.3 1.2-1.3.8 0 1.1.5 1.1 1.5v3.2h1.2v-3.4c0-1.5-.7-2.4-1.9-2.4-.7 0-1.3.3-1.7.9v-3.3h-1.2v8.1h1.2v-3.3zm-27.9 15.6c-1.1-.4-1.9-.8-2.3-1.2-.5-.4-.7-.9-.7-1.5s.2-1 .6-1.4c.5-.4 1.2-.7 2.1-.7 1.1 0 2.1.2 3 .7l.6-2.1c-1-.5-2.2-.7-3.6-.7-1.6 0-2.9.4-3.9 1.2s-1.5 1.9-1.5 3.2c0 2 1.4 3.5 4.2 4.5 1 .4 1.7.8 2.2 1.2.4.4.7 1 .7 1.6 0 .7-.3 1.3-.8 1.7s-1.3.6-2.2.6c-1.3 0-2.6-.3-3.7-1l-.6 2.1c1 .7 2.4 1 4.1 1 1.8 0 3.3-.5 4.3-1.4.9-.8 1.4-1.9 1.4-3.3 0-1.1-.3-2-1-2.7-.6-.6-1.6-1.3-2.9-1.8zm-19-12.9.1.6h1.1c-.1-.3-.1-.8-.1-1.3v-2c0-1.5-.7-2.3-2.2-2.3-.8 0-1.4.2-1.9.5l.3.8c.4-.3.9-.4 1.5-.4.8 0 1.2.4 1.2 1.1v.1c-2.1 0-3.3.7-3.3 2.1 0 .9.7 1.6 1.7 1.6.7-.1 1.3-.3 1.6-.8zm-2.1-1c0-.8.7-1.1 2.1-1.1v.9c0 .7-.6 1.1-1.2 1.1-.5-.1-.9-.4-.9-.9zm-7.5 11.4c-1.7 0-3 .7-3.9 2l-.1-1.8h-2.2c.1 1.3.1 2.5.1 3.7v12.2h2.5v-5.9c.7 1.1 1.8 1.6 3.3 1.6 1.4 0 2.6-.5 3.5-1.5 1.1-1.1 1.6-2.6 1.6-4.6 0-1.7-.5-3.1-1.4-4.2-1-1-2.1-1.5-3.4-1.5zm1.3 8.7c-.5.7-1.3 1.1-2.2 1.1-.8 0-1.5-.3-2-.8-.5-.6-.8-1.3-.8-2.1v-1.9c0-.2 0-.5.1-.8.2-.7.5-1.2 1-1.6s1.1-.6 1.7-.6c.9 0 1.7.4 2.2 1.1s.8 1.6.8 2.7c0 1.2-.3 2.2-.8 2.9zm11.8-8.7c-1.7 0-3 .7-3.9 2l-.1-1.8h-2.2c.1 1.3.1 2.5.1 3.7v12.2h2.5v-5.9c.7 1.1 1.8 1.6 3.3 1.6 1.4 0 2.6-.5 3.5-1.5 1.1-1.1 1.6-2.6 1.6-4.6 0-1.7-.5-3.1-1.4-4.2-.9-1-2-1.5-3.4-1.5zm1.3 8.7c-.5.7-1.3 1.1-2.2 1.1-.8 0-1.5-.3-2-.8-.5-.6-.8-1.3-.8-2.1v-1.9c0-.2 0-.5.1-.8.2-.7.5-1.2 1-1.6s1.1-.6 1.7-.6c.9 0 1.7.4 2.2 1.1s.8 1.6.8 2.7c0 1.2-.2 2.2-.8 2.9zm5.8-18.5h1.2v-8.1h-1.2zm-23.8-.6.1.6h1.1c-.1-.3-.1-.8-.1-1.3v-2c0-1.5-.7-2.3-2.2-2.3-.8 0-1.4.2-1.9.5l.3.8c.4-.3.9-.4 1.5-.4.8 0 1.2.4 1.2 1.1v.1c-2.1 0-3.3.7-3.3 2.1 0 .9.7 1.6 1.7 1.6.7-.1 1.2-.3 1.6-.8zm-2.1-1c0-.8.7-1.1 2.1-1.1v.9c0 .7-.6 1.1-1.2 1.1-.6-.1-.9-.4-.9-.9zm21.8-4.1c-.8 0-1.4.3-1.8.9v-3.3h-1.3v6.6 1.5h1.1l.1-.9c.4.7 1 1 1.8 1 1.4 0 2.5-1.3 2.5-3-.1-1.6-1.1-2.8-2.4-2.8zm-.5 4.8c-.8 0-1.4-.6-1.4-1.4v-1c0-.9.7-1.5 1.4-1.5.9 0 1.5.8 1.5 1.9 0 1.3-.6 2-1.5 2z" fill="#fff" fill-rule="evenodd"/></svg>
