<svg xmlns="http://www.w3.org/2000/svg" viewBox="0 0 143 38" enable-background="new 0 0 143 38" xml:space="preserve"> <g> <defs> <path id="SVGID_1_" d="M17.7,15.4L12,12.3c0,0-10.2-5.7-10.8-6C0.6,6,0,6.2,0,6.8C0,8,0,18.9,0,18.9s0,11.8,0,12.3 c0,0.5,0.4,0.7,1,0.5C1.5,31.5,12,25.6,12,25.6l5.6-3.1c0,0,4.8-2.6,5.4-3c0.6-0.4,0.6-0.8,0-1.1C22.6,18.1,17.7,15.4,17.7,15.4z"></path> </defs> <clipPath id="SVGID_2_"> <use xmlns:xlink="http://www.w3.org/1999/xlink" xlink:href="#SVGID_1_" overflow="visible"></use> </clipPath> <linearGradient id="SVGID_3_" gradientUnits="userSpaceOnUse" x1="6.9573" y1="5.7151" x2="6.9573" y2="32.1829"> <stop offset="0" style="stop-color:#257CB0"></stop> <stop offset="0.2863" style="stop-color:#4A93B5"></stop> <stop offset="0.767" style="stop-color:#78BCBB"></stop> <stop offset="1" style="stop-color:#89CFBD"></stop> </linearGradient><polygon clip-path="url(#SVGID_2_)" fill="url(#SVGID_3_)" points="0,5.7 0,18.9 0,32.2 13.9,18.9   "></polygon> <linearGradient id="SVGID_4_" gradientUnits="userSpaceOnUse" x1="0" y1="12.2835" x2="17.6514" y2="12.2835"> <stop offset="0" style="stop-color:#52C1AD"></stop> <stop offset="1" style="stop-color:#DEE89A"></stop> </linearGradient> <polygon clip-path="url(#SVGID_2_)" fill="url(#SVGID_4_)" points="17.7,15.4 12,12.3 0,5.6 0,5.7 13.9,18.9   "></polygon> <linearGradient id="SVGID_5_" gradientUnits="userSpaceOnUse" x1="8.8257" y1="18.9485" x2="8.8257" y2="32.2776"> <stop offset="0" style="stop-color:#EC413D"></stop> <stop offset="0.1668" style="stop-color:#DA4452"></stop> <stop offset="0.5748" style="stop-color:#B0487A"></stop> <stop offset="0.8619" style="stop-color:#954A92"></stop> <stop offset="1" style="stop-color:#8A4A9D"></stop> </linearGradient> <polygon clip-path="url(#SVGID_2_)" fill="url(#SVGID_5_)" points="0,32.2 0,32.3 12,25.6 17.7,22.5 13.9,18.9   "></polygon> <linearGradient id="SVGID_6_" gradientUnits="userSpaceOnUse" x1="18.9922" y1="15.3943" x2="18.9922" y2="22.5032"> <stop offset="0" style="stop-color:#F58879"></stop> <stop offset="0.1194" style="stop-color:#F69079"></stop> <stop offset="0.7128" style="stop-color:#FCB877"></stop> <stop offset="1" style="stop-color:#FEC874"></stop> </linearGradient> <polygon clip-path="url(#SVGID_2_)" fill="url(#SVGID_6_)" points="17.7,15.4 13.9,18.9 17.7,22.5 24.1,18.9   "></polygon> </g> <g> <g> <path class="label" fill="#fff" d="M41.9,9.4c1.2,0,2.2-0.5,2.8-1V4.6h-3v1.2h1.6v1.8C43,8,42.5,8.1,42,8.1c-1.7,0-2.7-1.2-2.7-3.1 c0-1.9,1-3.1,2.6-3.1c0.8,0,1.3,0.3,1.7,0.7l0.8-0.9c-0.5-0.5-1.4-1.1-2.6-1.1c-2.3,0-4.1,1.7-4.1,4.5C37.8,7.8,39.6,9.4,41.9,9.4 z M49.2,9.4c0.8,0,1.6-0.3,2.2-0.7l-0.5-0.9c-0.5,0.3-0.9,0.5-1.5,0.5c-1,0-1.8-0.7-1.9-1.8h4.1c0-0.2,0.1-0.4,0.1-0.7 c0-1.8-0.9-3-2.7-3c-1.5,0-3,1.3-3,3.4C46,8.2,47.4,9.4,49.2,9.4z M49,3.8c0.9,0,1.3,0.6,1.3,1.6h-2.9C47.6,4.4,48.2,3.8,49,3.8z M53.1,7.1c0,1.4,0.6,2.3,2.1,2.3c0.5,0,1-0.1,1.3-0.2l-0.3-1.1c-0.2,0.1-0.4,0.1-0.7,0.1c-0.6,0-0.9-0.4-0.9-1.1V4h1.6V2.8h-1.6 V1.1h-1.3l-0.2,1.8l-1,0.1V4h0.9V7.1z M61.1,1.7c0.5,0,0.9-0.4,0.9-0.8c0-0.5-0.4-0.9-0.9-0.9c-0.5,0-0.9,0.4-0.9,0.9 C60.2,1.4,60.6,1.7,61.1,1.7z M60.4,9.3h1.5V2.8h-1.5V9.3z M67.4,9.2l-0.3-1.1c-0.2,0.1-0.4,0.1-0.7,0.1c-0.6,0-0.9-0.4-0.9-1.1V4 h1.6V2.8h-1.6V1.1h-1.3l-0.2,1.8l-1,0.1V4H64v3.1c0,1.4,0.6,2.3,2.1,2.3C66.6,9.4,67.1,9.3,67.4,9.2z M73.9,9.4 c1.6,0,3.1-1.2,3.1-3.4c0-2.1-1.5-3.4-3.1-3.4c-1.6,0-3.1,1.2-3.1,3.4C70.9,8.2,72.3,9.4,73.9,9.4z M73.9,3.9c1,0,1.5,0.8,1.5,2.1 c0,1.3-0.6,2.1-1.5,2.1c-0.9,0-1.5-0.8-1.5-2.1C72.4,4.8,73,3.9,73.9,3.9z M80,4.8C80.6,4.2,80.9,4,81.5,4c0.7,0,1,0.4,1,1.5v3.8 H84v-4c0-1.6-0.6-2.5-2-2.5c-0.9,0-1.5,0.5-2.1,1h-0.1l-0.1-0.9h-1.3v6.4H80V4.8z M113.7,21c-0.7,0-1.3,0.1-1.9,0.4 c-0.5,0.3-1,0.7-1.4,1.2h-0.1l-0.2-1.4h-1.3v15.1h1.6V32c0-0.5,0-1.1-0.1-1.7h0.1c0.4,0.5,0.9,0.9,1.4,1.2 c0.6,0.3,1.2,0.4,1.9,0.4c1.4,0,2.4-0.5,3.2-1.4c0.8-1,1.2-2.3,1.2-4c0-1.7-0.4-3-1.1-4C116.2,21.4,115.1,21,113.7,21z M115.6,29.4c-0.5,0.7-1.2,1.1-2.1,1.1c-1.1,0-1.9-0.3-2.4-0.9c-0.5-0.6-0.7-1.7-0.7-3.2V26c0-1.3,0.3-2.2,0.7-2.8 c0.5-0.6,1.3-0.9,2.3-0.9c0.9,0,1.7,0.3,2.2,1c0.5,0.7,0.8,1.7,0.8,3C116.4,27.6,116.2,28.7,115.6,29.4z M120.2,31.6h1.6V16.8 h-1.6V31.6z M128.4,21c-0.6,0-1.2,0.1-1.9,0.2c-0.6,0.2-1.2,0.4-1.7,0.7l0.5,1.2c1.1-0.5,2.1-0.8,3-0.8c0.8,0,1.4,0.2,1.7,0.6 c0.4,0.4,0.5,1,0.5,1.8v0.7l-1.8,0.1c-3.4,0.1-5.1,1.2-5.1,3.3c0,1,0.3,1.7,0.9,2.3c0.6,0.5,1.4,0.8,2.5,0.8c0.8,0,1.4-0.1,2-0.3 c0.5-0.2,1-0.7,1.6-1.3h0.1l0.3,1.5h1.2v-7.1c0-1.2-0.3-2.1-0.9-2.7C130.6,21.3,129.7,21,128.4,21z M130.5,27.4 c0,1-0.3,1.7-0.9,2.3c-0.6,0.5-1.3,0.8-2.3,0.8c-0.6,0-1.1-0.1-1.5-0.4c-0.4-0.3-0.5-0.7-0.5-1.3c0-0.7,0.3-1.3,0.8-1.6 c0.6-0.3,1.5-0.5,2.7-0.6l1.6-0.1V27.4z M141.3,21.2c-1.5,4-2.3,6.5-2.6,7.2c-0.3,0.8-0.4,1.3-0.5,1.7H138 c-0.1-0.6-0.4-1.6-0.9-2.9l-2.3-6h-1.7l4.3,10.5l-0.6,1.5c-0.5,1.2-1.3,1.8-2.3,1.8c-0.4,0-0.8,0-1.2-0.1v1.3 c0.5,0.1,1,0.2,1.4,0.2c0.9,0,1.6-0.2,2.2-0.7c0.6-0.5,1.1-1.3,1.6-2.5l4.5-11.9H141.3z M86.9,21.3h-4.5c-1.2,0-2.7,0.2-3.9,1.2 c-0.9,0.8-1.4,1.9-1.4,2.9c0,1.7,1.3,3.4,3.7,3.4c0.2,0,0.5,0,0.7,0c-0.1,0.3-0.2,0.5-0.2,0.9c0,0.7,0.4,1.1,0.7,1.5 c-1,0.1-2.8,0.2-4.2,1c-1.3,0.8-1.7,1.9-1.7,2.7c0,1.6,1.5,3.1,4.7,3.1c3.8,0,5.8-2.1,5.8-4.1c0-1.5-0.9-2.3-1.9-3.1l-0.8-0.6  c-0.2-0.2-0.6-0.5-0.6-0.9c0-0.5,0.3-0.8,0.6-1.1c0.9-0.7,1.9-1.5,1.9-3.1c0-1.7-1.1-2.5-1.6-3h1.4L86.9,21.3z M84.9,34.7 c0,1.4-1.1,2.4-3.2,2.4c-2.4,0-3.9-1.1-3.9-2.7c0-1.6,1.4-2.1,1.9-2.3c0.9-0.3,2.1-0.4,2.3-0.4c0.2,0,0.3,0,0.5,0 C84.2,33,84.9,33.6,84.9,34.7z M83.2,27.7c-0.4,0.4-0.9,0.6-1.5,0.6c-1.9,0-2.8-2.4-2.8-3.9c0-0.6,0.1-1.2,0.5-1.6 c0.4-0.4,1-0.7,1.5-0.7c1.8,0,2.8,2.4,2.8,4C83.7,26.5,83.7,27.2,83.2,27.7z M70.5,21c-3.3,0-5.7,2.4-5.7,5.3 c0,2.4,1.9,5.2,5.4,5.2c3.6,0,5.6-2.7,5.6-5.3C75.8,23.5,73.8,21,70.5,21z M73,29.7c-0.5,0.7-1.4,1.1-2.2,1.1 c-2.7,0-3.7-3.6-3.7-5.7c0-0.9,0.2-1.9,1-2.7c0.5-0.5,1.3-0.7,2-0.7c2.7,0,3.7,3.7,3.7,5.6C73.6,28.1,73.5,29,73,29.7z M58.6,21 c-3.3,0-5.7,2.4-5.7,5.3c0,2.4,1.9,5.2,5.4,5.2c3.6,0,5.6-2.7,5.6-5.3C63.9,23.5,61.8,21,58.6,21z M61,29.7 c-0.5,0.7-1.4,1.1-2.2,1.1c-2.7,0-3.7-3.6-3.7-5.7c0-0.9,0.2-1.9,1-2.7c0.5-0.5,1.3-0.7,2-0.7c2.7,0,3.7,3.7,3.7,5.6 C61.7,28.1,61.6,29,61,29.7z M45.6,27.5l3.3-0.2v3.5c-0.7,0.3-1.4,0.6-2.8,0.6c-4.8,0-7.8-3.9-7.8-8c0-3.8,2.6-6.5,6.1-6.5 c2.6,0,4,1.3,4.7,2.1l-0.6,0.9l0.8-0.2l1.8-1.7c-0.5-0.3-1.3-0.9-2.9-1.4c-1-0.3-2.2-0.5-3.4-0.5c-5.6,0-8.9,3.9-8.9,8.2 c0,3.5,2.3,7.9,8.4,7.9c1.2,0,2.4-0.2,3.7-0.4l3.2-0.7v-2.7c0-0.2,0-0.9,0-1.1c0-0.2,0.1-0.2,0.2-0.4l0.6-0.6h-4.7L45.6,27.5z M90.2,29.5V17c0,0,0-0.1,0-0.1c0.1-0.8,0.3-0.9,1-1.3h-3.2l-1.7,0.8h1.7v13.6c0,0.4-0.1,0.5-0.6,1.2h3.9l0.8-0.5 c-0.4,0-0.8-0.1-1.1-0.1C90.4,30.4,90.2,30.3,90.2,29.5z M94.1,26l1.7-0.1l5.2-2.1c-0.2-0.5-0.4-1.4-1.5-2.2 c-0.7-0.4-1.5-0.6-2.3-0.6c-2.3,0-5,1.7-5,5c0,1.6,0.7,3.5,2.2,4.6c1.1,0.8,2.2,0.9,2.9,0.9c0.7,0,1.4-0.1,2.1-0.4 c0.2-0.1,0.5-0.3,0.7-0.4l1.2-1.1c-0.7,0.4-1.6,0.8-2.7,0.8C96.5,30.4,94.6,28.8,94.1,26z M94,24.8c0-2.4,1.6-3,2.5-3 c1.2,0,2.2,1,2.2,1.9c0,0.3-0.2,0.4-0.6,0.6l-4,1.7C94,25.6,94,25.2,94,24.8z M101.6,21.2h0.5v1.4h0.2v-1.4h0.5V21h-1.1V21.2z M103.7,22.3L103.7,22.3l-0.4-1.3H103v1.6h0.2v-1.5h0l0.5,1.5h0.1l0.4-1.5h0v1.5h0.2V21h-0.3L103.7,22.3z"></path> </g> </g> </svg>
